<svg width="200" height="200" viewBox="0 0 200 200" xmlns="http://www.w3.org/2000/svg">
  <circle cx="100" cy="100" r="100" fill="#FDE8D0"/>
  <!-- neck -->
  <rect x="84" y="136" width="32" height="28" rx="6" fill="#F5C9A0"/>
  <!-- shirt -->
  <ellipse cx="100" cy="178" rx="52" ry="22" fill="#4A90D9"/>
  <!-- face -->
  <ellipse cx="100" cy="98" rx="38" ry="42" fill="#F5C9A0"/>
  <!-- hair back -->
  <ellipse cx="100" cy="62" rx="32" ry="28" fill="#2D1B00"/>
  <!-- hair sides -->
  <ellipse cx="66" cy="90" rx="11" ry="22" fill="#2D1B00"/>
  <ellipse cx="134" cy="90" rx="11" ry="22" fill="#2D1B00"/>
  <!-- bun -->
  <circle cx="100" cy="52" r="16" fill="#1A0F00"/>
  <ellipse cx="100" cy="52" rx="8" ry="5" fill="#3D2800"/>
  <!-- eyes -->
  <ellipse cx="86" cy="96" rx="8" ry="9" fill="white"/>
  <ellipse cx="114" cy="96" rx="8" ry="9" fill="white"/>
  <circle cx="87" cy="97" r="6" fill="#1A0F00"/>
  <circle cx="115" cy="97" r="6" fill="#1A0F00"/>
  <circle cx="89" cy="95" r="2" fill="white"/>
  <circle cx="117" cy="95" r="2" fill="white"/>
  <!-- brows -->
  <path d="M78 86 Q86 83 93 86" stroke="#2D1B00" stroke-width="2.8" fill="none" stroke-linecap="round"/>
  <path d="M107 86 Q114 83 122 86" stroke="#2D1B00" stroke-width="2.8" fill="none" stroke-linecap="round"/>
  <!-- nose -->
  <ellipse cx="100" cy="110" rx="5" ry="4" fill="#E8A870"/>
  <!-- smile -->
  <path d="M86 122 Q100 134 114 122" stroke="#C4715A" stroke-width="3" fill="none" stroke-linecap="round"/>
  <!-- cheeks -->
  <ellipse cx="74" cy="114" rx="11" ry="8" fill="#F4A0A0" opacity="0.5"/>
  <ellipse cx="126" cy="114" rx="11" ry="8" fill="#F4A0A0" opacity="0.5"/>
  <!-- earring -->
  <circle cx="60" cy="102" r="5" fill="#FFD700"/>
</svg>
